<svg xmlns="http://www.w3.org/2000/svg" xmlns:xlink="http://www.w3.org/1999/xlink" width="360" zoomAndPan="magnify" viewBox="0 0 270 74.999997" height="100" preserveAspectRatio="xMidYMid meet" version="1.0"><defs><g/></defs><path fill="rgb(0%, 0%, 0%)" d="M 52.417969 60.136719 L 10.582031 60.136719 C 8.882812 60.136719 7.5 58.757812 7.5 57.0625 L 7.5 15.960938 C 7.5 14.265625 8.882812 12.886719 10.582031 12.886719 L 52.417969 12.886719 C 54.117188 12.886719 55.5 14.265625 55.5 15.960938 L 55.5 57.0625 C 55.5 58.757812 54.117188 60.136719 52.417969 60.136719 " fill-opacity="1" fill-rule="nonzero"/><g fill="rgb(100%, 100%, 100%)" fill-opacity="1"><g transform="translate(18.544862, 51.743333)"><g><path d="M 13.820312 0.308594 C 16.773438 0.308594 19.371094 -0.667969 21.371094 -2.574219 C 21.753906 -2.929688 21.96875 -3.429688 21.96875 -3.90625 C 21.96875 -4.742188 21.324219 -5.410156 20.5625 -5.410156 C 20.0625 -5.410156 19.773438 -5.242188 19.324219 -4.882812 C 17.726562 -3.480469 15.9375 -2.859375 13.820312 -2.859375 C 11.460938 -2.859375 9.363281 -3.742188 7.816406 -5.242188 C 6.265625 -6.742188 5.359375 -8.792969 5.359375 -11.078125 L 5.359375 -19.632812 L 15.867188 -19.632812 C 16.796875 -19.632812 17.488281 -20.300781 17.488281 -21.15625 C 17.488281 -22.039062 16.75 -22.777344 15.867188 -22.777344 L 5.359375 -22.777344 L 5.359375 -28.234375 C 5.359375 -29.164062 4.597656 -29.855469 3.71875 -29.855469 C 2.859375 -29.855469 2.121094 -29.113281 2.121094 -28.234375 L 2.121094 -11.101562 C 2.121094 -7.933594 3.382812 -5.074219 5.550781 -2.976562 C 7.671875 -0.90625 10.601562 0.308594 13.820312 0.308594 Z M 13.820312 0.308594 "/></g></g></g><path fill="rgb(100%, 100%, 100%)" d="M 43.464844 41.277344 C 42.429688 41.277344 41.589844 42.117188 41.589844 43.152344 C 41.589844 44.1875 42.429688 45.027344 43.464844 45.027344 C 44.5 45.027344 45.339844 44.1875 45.339844 43.152344 C 45.339844 42.117188 44.5 41.277344 43.464844 41.277344 " fill-opacity="1" fill-rule="nonzero"/><g fill="rgb(0%, 0%, 0%)" fill-opacity="1"><g transform="translate(64.274484, 53.243335)"><g><path d="M 14.734375 -19.734375 L 8.953125 -19.734375 L 8.953125 -6.59375 C 8.953125 -5.695312 9.160156 -5.054688 9.578125 -4.671875 C 9.992188 -4.285156 10.707031 -4.09375 11.71875 -4.09375 L 14.734375 -4.09375 L 14.734375 0 L 10.859375 0 C 6.285156 0 4 -2.195312 4 -6.59375 L 4 -19.734375 L 1.203125 -19.734375 L 1.203125 -23.734375 L 4 -23.734375 L 4 -29.640625 L 8.953125 -29.640625 L 8.953125 -23.734375 L 14.734375 -23.734375 Z M 14.734375 -19.734375 "/></g></g></g><g fill="rgb(0%, 0%, 0%)" fill-opacity="1"><g transform="translate(79.868634, 53.243335)"><g><path d="M 8.140625 -23.734375 L 8.140625 -19.59375 C 9.660156 -22.613281 12.03125 -24.125 15.25 -24.125 L 15.25 -19.046875 L 14 -19.046875 C 12.070312 -19.046875 10.613281 -18.554688 9.625 -17.578125 C 8.632812 -16.597656 8.140625 -14.90625 8.140625 -12.5 L 8.140625 0 L 3.234375 0 L 3.234375 -23.734375 Z M 8.140625 -23.734375 "/></g></g></g><g fill="rgb(0%, 0%, 0%)" fill-opacity="1"><g transform="translate(95.979714, 53.243335)"><g><path d="M 13.21875 0.390625 C 9.78125 0.390625 6.984375 -0.726562 4.828125 -2.96875 C 2.671875 -5.207031 1.59375 -8.179688 1.59375 -11.890625 C 1.59375 -15.597656 2.679688 -18.5625 4.859375 -20.78125 C 7.046875 -23.007812 9.867188 -24.125 13.328125 -24.125 C 16.796875 -24.125 19.601562 -23.050781 21.75 -20.90625 C 23.90625 -18.769531 24.984375 -15.976562 24.984375 -12.53125 C 24.984375 -11.695312 24.925781 -10.921875 24.8125 -10.203125 L 6.640625 -10.203125 C 6.753906 -8.222656 7.421875 -6.648438 8.640625 -5.484375 C 9.859375 -4.328125 11.382812 -3.75 13.21875 -3.75 C 15.894531 -3.75 17.78125 -4.851562 18.875 -7.0625 L 24.171875 -7.0625 C 23.453125 -4.882812 22.144531 -3.097656 20.25 -1.703125 C 18.351562 -0.304688 16.007812 0.390625 13.21875 0.390625 Z M 19.859375 -13.5625 C 19.828125 -15.519531 19.179688 -17.078125 17.921875 -18.234375 C 16.660156 -19.398438 15.125 -19.984375 13.3125 -19.984375 C 11.5 -19.984375 9.984375 -19.398438 8.765625 -18.234375 C 7.546875 -17.078125 6.847656 -15.519531 6.671875 -13.5625 Z M 19.859375 -13.5625 "/></g></g></g><g fill="rgb(0%, 0%, 0%)" fill-opacity="1"><g transform="translate(122.127968, 53.243335)"><g><path d="M 18.875 -6.046875 C 20.300781 -7.503906 21.015625 -9.453125 21.015625 -11.890625 C 21.015625 -14.328125 20.300781 -16.265625 18.875 -17.703125 C 17.457031 -19.140625 15.773438 -19.859375 13.828125 -19.859375 C 11.878906 -19.859375 10.191406 -19.15625 8.765625 -17.75 C 7.347656 -16.34375 6.640625 -14.414062 6.640625 -11.96875 C 6.640625 -9.53125 7.347656 -7.570312 8.765625 -6.09375 C 10.191406 -4.613281 11.878906 -3.875 13.828125 -3.875 C 15.773438 -3.875 17.457031 -4.597656 18.875 -6.046875 Z M 12.796875 0.390625 C 9.640625 0.390625 6.984375 -0.765625 4.828125 -3.078125 C 2.671875 -5.390625 1.59375 -8.347656 1.59375 -11.953125 C 1.59375 -15.554688 2.660156 -18.484375 4.796875 -20.734375 C 6.941406 -22.992188 9.609375 -24.125 12.796875 -24.125 C 14.660156 -24.125 16.300781 -23.695312 17.71875 -22.84375 C 19.144531 -22 20.242188 -20.890625 21.015625 -19.515625 L 21.015625 -23.734375 L 25.96875 -23.734375 L 25.96875 0 L 21.015625 0 L 21.015625 -4.4375 C 20.210938 -2.96875 19.109375 -1.796875 17.703125 -0.921875 C 16.296875 -0.046875 14.660156 0.390625 12.796875 0.390625 Z M 12.796875 0.390625 "/></g></g></g><g fill="rgb(0%, 0%, 0%)" fill-opacity="1"><g transform="translate(150.903997, 53.243335)"><g><path d="M 14.734375 -19.734375 L 8.953125 -19.734375 L 8.953125 -6.59375 C 8.953125 -5.695312 9.160156 -5.054688 9.578125 -4.671875 C 9.992188 -4.285156 10.707031 -4.09375 11.71875 -4.09375 L 14.734375 -4.09375 L 14.734375 0 L 10.859375 0 C 6.285156 0 4 -2.195312 4 -6.59375 L 4 -19.734375 L 1.203125 -19.734375 L 1.203125 -23.734375 L 4 -23.734375 L 4 -29.640625 L 8.953125 -29.640625 L 8.953125 -23.734375 L 14.734375 -23.734375 Z M 14.734375 -19.734375 "/></g></g></g><g fill="rgb(0%, 0%, 0%)" fill-opacity="1"><g transform="translate(166.49815, 53.243335)"><g><path d="M 13.1875 -23.734375 L 13.1875 -19.734375 L 8.78125 -19.734375 L 8.78125 0 L 3.828125 0 L 3.828125 -19.734375 L 1.03125 -19.734375 L 1.03125 -23.734375 L 3.828125 -23.734375 L 3.828125 -25.421875 C 3.828125 -28.148438 4.550781 -30.132812 6 -31.375 C 7.457031 -32.625 9.738281 -33.25 12.84375 -33.25 L 12.84375 -29.15625 C 11.34375 -29.15625 10.289062 -28.875 9.6875 -28.3125 C 9.082031 -27.757812 8.78125 -26.796875 8.78125 -25.421875 L 8.78125 -23.734375 Z M 13.1875 -23.734375 "/></g></g></g><g fill="rgb(0%, 0%, 0%)" fill-opacity="1"><g transform="translate(180.369167, 53.243335)"><g><path d="M 3.234375 0 L 3.234375 -31.875 L 8.140625 -31.875 L 8.140625 0 Z M 3.234375 0 "/></g></g></g><g fill="rgb(0%, 0%, 0%)" fill-opacity="1"><g transform="translate(191.310885, 53.243335)"><g><path d="M 18.65625 -5.90625 C 20.09375 -7.34375 20.8125 -9.335938 20.8125 -11.890625 C 20.8125 -14.441406 20.113281 -16.425781 18.71875 -17.84375 C 17.320312 -19.269531 15.632812 -19.984375 13.65625 -19.984375 C 11.675781 -19.984375 10.007812 -19.269531 8.65625 -17.84375 C 7.3125 -16.425781 6.640625 -14.429688 6.640625 -11.859375 C 6.640625 -9.296875 7.296875 -7.300781 8.609375 -5.875 C 9.929688 -4.457031 11.578125 -3.75 13.546875 -3.75 C 15.515625 -3.75 17.21875 -4.46875 18.65625 -5.90625 Z M 13.546875 0.390625 C 10.085938 0.390625 7.238281 -0.734375 5 -2.984375 C 2.757812 -5.242188 1.640625 -8.203125 1.640625 -11.859375 C 1.640625 -15.523438 2.796875 -18.484375 5.109375 -20.734375 C 7.421875 -22.992188 10.296875 -24.125 13.734375 -24.125 C 17.179688 -24.125 20.0625 -22.992188 22.375 -20.734375 C 24.6875 -18.484375 25.84375 -15.535156 25.84375 -11.890625 C 25.84375 -8.242188 24.65625 -5.285156 22.28125 -3.015625 C 19.914062 -0.742188 17.003906 0.390625 13.546875 0.390625 Z M 13.546875 0.390625 "/></g></g></g><g fill="rgb(0%, 0%, 0%)" fill-opacity="1"><g transform="translate(218.3638, 53.243335)"><g><path d="M 30.28125 -23.734375 L 35.109375 -23.734375 L 27.75 0 L 22.578125 0 L 17.796875 -17.53125 L 13.015625 0 L 7.84375 0 L 0.4375 -23.734375 L 5.421875 -23.734375 L 10.375 -4.65625 L 15.421875 -23.734375 L 20.546875 -23.734375 L 25.375 -4.734375 Z M 30.28125 -23.734375 "/></g></g></g><g fill="rgb(0%, 0%, 0%)" fill-opacity="1"><g transform="translate(253.472302, 53.243335)"><g><path d="M 7.15625 -0.84375 C 6.582031 -0.28125 5.878906 0 5.046875 0 C 4.210938 0 3.515625 -0.285156 2.953125 -0.859375 C 2.390625 -1.429688 2.109375 -2.125 2.109375 -2.9375 C 2.109375 -3.757812 2.390625 -4.457031 2.953125 -5.03125 C 3.515625 -5.613281 4.210938 -5.90625 5.046875 -5.90625 C 5.878906 -5.90625 6.582031 -5.613281 7.15625 -5.03125 C 7.726562 -4.457031 8.015625 -3.753906 8.015625 -2.921875 C 8.015625 -2.097656 7.726562 -1.40625 7.15625 -0.84375 Z M 7.15625 -0.84375 "/></g></g></g></svg>