<svg xmlns="http://www.w3.org/2000/svg" xmlns:xlink="http://www.w3.org/1999/xlink" width="500" zoomAndPan="magnify" viewBox="0 0 375 374.999991" height="500" preserveAspectRatio="xMidYMid meet" version="1.0"><defs><g/><clipPath id="e17ba70d87"><path d="M 28.308594 28.894531 L 346.691406 28.894531 L 346.691406 347.28125 L 28.308594 347.28125 Z M 28.308594 28.894531 " clip-rule="nonzero"/></clipPath><clipPath id="5f3c5e06fd"><path d="M 325.988281 38.824219 C 331.902344 38.824219 336.761719 43.683594 336.761719 49.597656 L 336.761719 326.578125 C 336.761719 332.492188 331.902344 337.351562 325.988281 337.351562 L 49.011719 337.351562 C 43.097656 337.351562 38.238281 332.492188 38.238281 326.578125 L 38.238281 49.597656 C 38.238281 43.683594 43.097656 38.824219 49.011719 38.824219 L 325.988281 38.824219 M 325.988281 28.894531 L 49.011719 28.894531 C 37.601562 28.894531 28.308594 38.191406 28.308594 49.597656 L 28.308594 326.578125 C 28.308594 337.984375 37.601562 347.28125 49.011719 347.28125 L 325.988281 347.28125 C 337.398438 347.28125 346.691406 337.984375 346.691406 326.578125 L 346.691406 49.597656 C 346.691406 38.191406 337.398438 28.894531 325.988281 28.894531 Z M 325.988281 28.894531 " clip-rule="nonzero"/></clipPath><clipPath id="e9e77dc3d3"><path d="M 0.308594 0.894531 L 318.691406 0.894531 L 318.691406 319.28125 L 0.308594 319.28125 Z M 0.308594 0.894531 " clip-rule="nonzero"/></clipPath><clipPath id="d4613ee69d"><path d="M 297.988281 10.824219 C 303.902344 10.824219 308.761719 15.683594 308.761719 21.597656 L 308.761719 298.578125 C 308.761719 304.492188 303.902344 309.351562 297.988281 309.351562 L 21.011719 309.351562 C 15.097656 309.351562 10.238281 304.492188 10.238281 298.578125 L 10.238281 21.597656 C 10.238281 15.683594 15.097656 10.824219 21.011719 10.824219 L 297.988281 10.824219 M 297.988281 0.894531 L 21.011719 0.894531 C 9.601562 0.894531 0.308594 10.191406 0.308594 21.597656 L 0.308594 298.578125 C 0.308594 309.984375 9.601562 319.28125 21.011719 319.28125 L 297.988281 319.28125 C 309.398438 319.28125 318.691406 309.984375 318.691406 298.578125 L 318.691406 21.597656 C 318.691406 10.191406 309.398438 0.894531 297.988281 0.894531 Z M 297.988281 0.894531 " clip-rule="nonzero"/></clipPath><clipPath id="0670e29147"><rect x="0" width="319" y="0" height="320"/></clipPath><clipPath id="f79611ed6f"><rect x="0" width="144" y="0" height="249"/></clipPath><clipPath id="e91a72362b"><path d="M 256.285156 223.78125 L 281.789062 223.78125 L 281.789062 249.285156 L 256.285156 249.285156 Z M 256.285156 223.78125 " clip-rule="nonzero"/></clipPath><clipPath id="533cdf8ac3"><path d="M 269.035156 223.78125 C 261.992188 223.78125 256.285156 229.488281 256.285156 236.53125 C 256.285156 243.574219 261.992188 249.285156 269.035156 249.285156 C 276.078125 249.285156 281.789062 243.574219 281.789062 236.53125 C 281.789062 229.488281 276.078125 223.78125 269.035156 223.78125 Z M 269.035156 223.78125 " clip-rule="nonzero"/></clipPath><clipPath id="217279a1fc"><path d="M 0.285156 0.78125 L 25.789062 0.78125 L 25.789062 26.285156 L 0.285156 26.285156 Z M 0.285156 0.78125 " clip-rule="nonzero"/></clipPath><clipPath id="a40e6173c4"><path d="M 13.035156 0.78125 C 5.992188 0.78125 0.285156 6.488281 0.285156 13.53125 C 0.285156 20.574219 5.992188 26.285156 13.035156 26.285156 C 20.078125 26.285156 25.789062 20.574219 25.789062 13.53125 C 25.789062 6.488281 20.078125 0.78125 13.035156 0.78125 Z M 13.035156 0.78125 " clip-rule="nonzero"/></clipPath><clipPath id="95bfbcc540"><rect x="0" width="26" y="0" height="27"/></clipPath></defs><rect x="-37.5" width="450" fill="#ffffff" y="-37.499999" height="449.999989" fill-opacity="1"/><rect x="-37.5" width="450" fill="#ffffff" y="-37.499999" height="449.999989" fill-opacity="1"/><g clip-path="url(#e17ba70d87)"><g clip-path="url(#5f3c5e06fd)"><g transform="matrix(1, 0, 0, 1, 28, 28)"><g clip-path="url(#0670e29147)"><g clip-path="url(#e9e77dc3d3)"><g clip-path="url(#d4613ee69d)"><path fill="#ffffff" d="M 0.308594 0.894531 L 318.691406 0.894531 L 318.691406 319.28125 L 0.308594 319.28125 Z M 0.308594 0.894531 " fill-opacity="1" fill-rule="nonzero"/></g></g></g></g></g></g><g transform="matrix(1, 0, 0, 1, 114, 88)"><g clip-path="url(#f79611ed6f)"><g fill="#ffffff" fill-opacity="1"><g transform="translate(1.155863, 195.423957)"><g><path d="M 86.9375 1.953125 C 76.84375 1.953125 67.320312 0.128906 58.375 -3.515625 C 49.4375 -7.171875 41.617188 -12.242188 34.921875 -18.734375 C 28.128906 -25.328125 22.832031 -32.992188 19.03125 -41.734375 C 15.238281 -50.484375 13.34375 -59.851562 13.34375 -69.84375 L 13.34375 -177.609375 C 13.34375 -180.410156 14.335938 -182.8125 16.328125 -184.8125 C 18.328125 -186.8125 20.675781 -187.8125 23.375 -187.8125 C 26.175781 -187.8125 28.597656 -186.835938 30.640625 -184.890625 C 32.691406 -182.941406 33.71875 -180.515625 33.71875 -177.609375 L 33.71875 -143.296875 L 99.828125 -143.296875 C 102.617188 -143.296875 105.015625 -142.296875 107.015625 -140.296875 C 109.015625 -138.296875 110.015625 -135.894531 110.015625 -133.09375 C 110.015625 -130.394531 109.039062 -128.117188 107.09375 -126.265625 C 105.144531 -124.421875 102.722656 -123.5 99.828125 -123.5 L 33.71875 -123.5 L 33.71875 -69.703125 C 33.71875 -62.503906 35.066406 -55.753906 37.765625 -49.453125 C 40.460938 -43.160156 44.257812 -37.664062 49.15625 -32.96875 C 54.050781 -28.28125 59.722656 -24.609375 66.171875 -21.953125 C 72.617188 -19.304688 79.539062 -17.984375 86.9375 -17.984375 C 93.632812 -17.984375 99.828125 -19.003906 105.515625 -21.046875 C 111.210938 -23.097656 116.5625 -26.328125 121.5625 -30.734375 C 122.957031 -31.828125 124.203125 -32.648438 125.296875 -33.203125 C 126.398438 -33.753906 127.753906 -34.03125 129.359375 -34.03125 C 131.753906 -34.03125 133.828125 -33.101562 135.578125 -31.25 C 137.328125 -29.40625 138.203125 -27.179688 138.203125 -24.578125 C 138.203125 -21.285156 136.953125 -18.488281 134.453125 -16.1875 C 128.148438 -10.1875 120.976562 -5.660156 112.9375 -2.609375 C 104.894531 0.429688 96.226562 1.953125 86.9375 1.953125 Z M 86.9375 1.953125 "/></g></g></g></g></g><g clip-path="url(#e91a72362b)"><g clip-path="url(#533cdf8ac3)"><g transform="matrix(1, 0, 0, 1, 256, 223)"><g clip-path="url(#95bfbcc540)"><g clip-path="url(#217279a1fc)"><g clip-path="url(#a40e6173c4)"><path fill="#ffffff" d="M 0.285156 0.78125 L 25.789062 0.78125 L 25.789062 26.285156 L 0.285156 26.285156 Z M 0.285156 0.78125 " fill-opacity="1" fill-rule="nonzero"/></g></g></g></g></g></g></svg>